<?xml version="1.0" encoding="UTF-8"?>
<!-- Generated by Pixelmator Pro 3.5.8 -->
<svg width="884" height="922" viewBox="0 0 884 922" xmlns="http://www.w3.org/2000/svg">
    <path id="Trazado" fill="#0f3c21" stroke="none" d="M 548.064819 709.619263 C 548.060181 735.229248 548.115601 760.849243 548.050903 786.459229 C 548.048645 798.909241 546.768372 800.329041 534.648376 800.196838 C 495.548462 799.749756 456.308289 800.882568 417.388824 797.935547 C 390.699188 795.930664 364.060333 789.545837 338.091583 782.551086 C 301.813385 772.794495 268.286407 756.31842 237.280289 734.842773 C 215.283051 719.648804 194.445953 703.484985 175.969528 683.891724 C 153.335785 660.157837 133.540756 633.87085 116.983757 605.560974 C 104.307732 583.708618 95.6119 560.667114 87.226166 537.085571 C 62.878616 468.621155 64.561165 399.421448 82.043724 330.414612 C 88.44828 305.115784 99.742767 280.637817 111.70697 257.269958 C 126.822372 227.772705 146.027313 200.276184 169.251633 176.650391 C 197.546844 147.865662 228.801422 122.661255 265.264893 103.667847 C 312.269348 79.176392 361.4823 62.685303 413.963501 56.364868 C 431.493835 54.248108 449.313904 53.981323 466.963959 53.814575 C 504.68399 53.461304 542.413879 53.968201 580.134033 53.67511 C 621.134094 53.352478 662.224182 52.519958 703.264343 51.927429 C 705.80426 51.927917 708.344299 51.79834 710.864319 51.998779 C 717.994202 52.55011 720.143677 55.7005 715.572632 61.059692 C 703.620117 75.057495 692.357361 90.405457 677.975281 101.532837 C 644.280518 127.576782 604.708008 141.609497 563.166504 149.682007 C 532.515442 155.616394 501.474731 159.560852 470.843597 165.665283 C 418.681763 176.025818 368.558899 191.786682 324.053314 222.498596 C 301.360138 238.030884 281.147949 256.907532 264.103149 278.487732 C 217.892502 337.039307 204.770508 403.17688 217.537369 475.359192 C 223.281479 507.790253 238.156235 536.713013 257.851563 562.546509 C 280.356201 592.060608 308.401794 616.235718 342.438995 631.56189 C 390.695068 653.27063 441.014099 658.64978 492.177002 642.589111 C 507.827911 637.691956 522.659302 629.9646 537.490662 622.757324 C 545.911438 618.658813 547.941284 619.069214 547.999573 628.589233 C 548.164734 655.589233 548.049744 682.589233 548.0448 709.65918 Z"/>
    <path id="path1" fill="#0f3c21" stroke="none" d="M 750.879333 630.196045 C 750.86676 699.429403 750.854187 768.66274 750.841614 837.896057 C 750.838684 853.896057 750.368652 854.356018 734.168579 854.363098 C 697.855265 854.356506 661.545288 854.349915 625.238647 854.343323 C 608.688599 854.340332 608.43866 854.040222 608.441711 837.170227 C 608.45754 749.930196 608.473389 662.686849 608.489258 575.440186 C 608.493042 554.440186 607.673218 553.650085 586.663208 553.63623 C 543.59314 553.628418 500.493408 552.490601 457.483124 553.94281 C 420.362915 555.196045 393.548584 523.931213 394.044556 490.871246 C 394.04483 489.461273 394.105072 488.0513 394.045319 486.651276 C 390.404846 434.040619 429.380066 405.547668 474.060211 404.745789 C 514.580383 404.023193 555.120239 404.580566 595.650269 404.587891 C 636.736938 404.595337 677.830282 404.629476 718.930298 404.690308 C 725.396729 404.701477 731.858459 405.043091 738.2901 405.713745 C 749.799866 406.945923 750.569702 407.946045 750.777588 419.196075 C 750.777222 421.196075 750.776917 423.136078 750.77655 425.106049 L 750.739319 630.206055 Z"/>
    <path id="path2" fill="#4baa4b" stroke="none" d="M 384.266357 591.039551 C 379.486542 590.318604 376.416504 590.438049 373.81665 589.377563 C 346.757782 578.552368 323.224792 560.445923 305.826202 537.065247 C 285.571136 509.861542 272.566681 479.239197 270.122955 444.748749 C 267.679199 410.258331 270.135437 376.008789 285.141083 344.801514 C 294.636566 325.077087 307.602936 307.22168 323.420685 292.08844 C 345.974609 270.402588 371.557526 254.177124 399.789795 241.892334 C 429.792145 228.817749 461.423645 220.663574 493.71463 215.169434 C 518.635376 210.93396 543.506165 206.418457 568.397034 202.012939 C 580.467468 199.875122 592.677734 198.317383 604.538208 195.329529 C 614.188721 192.891235 623.349548 188.552917 632.830078 185.334717 C 671.152405 172.281616 705.695984 152.767822 735.66095 125.353394 C 739.381653 121.96405 743.022156 118.494568 747.112915 114.685425 C 748.422424 117.015625 749.172302 117.685791 749.17218 118.415771 C 749.265991 152.345825 753.999878 186.896606 740.423889 219.414185 C 731.159851 241.592529 719.616028 262.4104 702.412842 280.287292 C 661.40509 322.849854 609.911621 342.150513 553.240234 349.370178 C 527.969727 352.585632 502.119934 351.170898 476.529816 351.92627 C 441.719635 352.919922 410.397766 363.124268 383.273651 385.819336 C 334.596222 426.530487 324.365387 486.338623 348.625732 539.643005 C 356.312622 556.524414 370.460114 570.46698 381.617371 585.779053 C 382.594086 587.483765 383.478424 589.239746 384.266357 591.039551 Z"/>
</svg>
